<?xml version="1.0" encoding="utf-8"?>
<!-- Generator: Adobe Illustrator 19.0.0, SVG Export Plug-In . SVG Version: 6.00 Build 0)  -->
<!DOCTYPE svg PUBLIC "-//W3C//DTD SVG 1.1//EN" "http://www.w3.org/Graphics/SVG/1.1/DTD/svg11.dtd">
<svg version="1.1" id="Layer_1" xmlns="http://www.w3.org/2000/svg" xmlns:xlink="http://www.w3.org/1999/xlink" x="0px" y="0px"
	 viewBox="0 0 64 64" style="enable-background:new 0 0 64 64;" xml:space="preserve">
<style type="text/css">
	.st0{fill:#CECECE;}
</style>
<g id="XMLID_3_">
	<g id="XMLID_8_">
		<path id="XMLID_16_" class="st0" d="M51.3,38.6c-1.2,0.2-2.4,0.2-3.9,0.1l0.1-2.4c8.4,0.4,11.4-4.2,12.1-5.4
			c-0.4-1.3-0.9-2.5-1.2-3.1c-4,3.4-10.5-1.1-10.8-1.3c-0.4-0.3-0.6-0.7-0.5-1.1c0.1-0.4,0.4-0.8,0.8-0.9c1-0.3,1.6-0.9,1.8-1.7
			c0.3-1.1-0.1-2.6-1-3.8c-0.7-0.1-2,1.7-2.8,3.5c-0.1,0.3-0.4,0.6-0.8,0.7c-0.4,0.1-0.7,0-1-0.2c-2.3-1.8-5-3.1-7.8-3.8
			c-2.5-0.6-5.2-0.8-7.8-0.5c-2.8,0.4-5.4,1.2-7.8,2.6c-2.8,1.6-4.8,3.4-6.2,5.4c-2.9,4.3-2.6,8.3,0.9,12.1l-1.7,1.6
			c-4.3-4.6-4.7-9.8-1.1-15c1.6-2.3,3.8-4.3,7-6.1c2.7-1.5,5.6-2.4,8.7-2.9c2.9-0.4,5.8-0.2,8.6,0.5c2.7,0.7,5.2,1.4,7.5,3
			c0.8-1.5,2.2-3.9,3.8-4.2c0,0,0,0,0,0c0.5-0.1,1.5,0.4,2.3,1.4c1.1,1.4,2,3.9,1.4,6.1c-0.2,0.7-0.6,1.5-1.3,2.2
			c1.8,0.9,4.8,2,6.5,0.3c0.5-0.5,1.2-0.7,1.8-0.5c1.6,0.4,2.6,3.2,3.1,5.4c0.1,0.2,0,0.5,0,0.7C61.9,31.7,59.6,37.5,51.3,38.6z"/>
	</g>
</g>
<g id="XMLID_1_">
	<g id="XMLID_11_">
		<path id="XMLID_15_" class="st0" d="M31.8,44.1c0,0-0.1,0-0.1,0c-3.2,0.4-6.5,0.3-9.6-0.7l0.7-2.2c2.8,0.8,5.7,1.1,8.6,0.7
			c2.5-0.3,5-1.1,7.4-2.4c0.7-0.4,0.6-0.9,0.6-0.9l2.3-0.6c0.2,0.8,0.1,2.5-1.8,3.5C37.3,43,34.5,43.8,31.8,44.1z"/>
	</g>
</g>
<g id="XMLID_9_">
	<path id="XMLID_13_" class="st0" d="M49.4,46.2c-1.4,0.2-2.9-0.1-3.5-0.2c-1.4-0.3-1.3-1.8-1.2-2.4c0.1-1.2,0.1-1.8-1.6-2
		c-1.9-0.2-3.4-1.8-4-3.3c-0.5-1.2-0.4-2.3,0.3-3l1.8,1.5c0,0,0,0,0,0c0,0.1,0,0.5,0.3,1.1c0.4,0.8,1.2,1.3,1.9,1.4
		c3.9,0.5,3.7,3.4,3.7,4.4c0,0,0,0,0,0.1c1.3,0.2,2.5,0.1,2.8-0.1c0.2-0.5,0.1-1.4-0.3-2.3c-0.5-1.3-1.5-2.4-2.3-2.7l0.8-2.2
		c1.8,0.6,3.1,2.5,3.7,4c0.7,1.6,0.8,3.1,0.2,4.3C51.4,45.7,50.4,46.1,49.4,46.2z"/>
</g>
<g id="XMLID_6_">
	<path id="XMLID_12_" class="st0" d="M15.5,50.2c-1.9,0.2-4.6-1.4-5.5-2.2c-0.5-0.4-0.9-1.4-0.4-3.2c0.7-2.4,3.2-6.1,7.1-6.8
		l0.4,2.3c-2.3,0.4-3.7,2.4-4.3,3.2c-0.9,1.4-1.1,2.6-1.1,2.9c0.7,0.6,2.6,1.5,3.3,1.5c0.1-0.1,0.1-0.2,0.2-0.3
		c0.6-1,1.2-1.7,4.5-2.8c1.8-0.6,2.6-1.8,2.5-3.6c-0.1-2.5-2.1-5.4-4-5.8l0.6-2.3c2.9,0.7,5.6,4.5,5.8,8c0.1,2.8-1.4,5-4.2,5.9
		c-2.7,0.9-3,1.3-3.2,1.7c-0.1,0.2-0.3,0.6-0.7,0.9C16.3,50,15.9,50.2,15.5,50.2z"/>
</g>
<g id="XMLID_7_">
	<path id="XMLID_2_" class="st0" d="M39.4,23.6L20.6,23l-0.1,2.4c-0.1,2.6,2,4.8,4.6,4.8c-0.1,2.6,2,4.8,4.6,4.8l4.7,0.1l0.1-2.4
		l-4.7-0.1c-1.3,0-2.3-1.1-2.3-2.4l9.4,0.3l0.1-2.4l-11.8-0.3c-1.3,0-2.3-1.1-2.3-2.4l16.5,0.5L39.4,23.6z"/>
</g>
<g id="XMLID_14_">
	<path id="XMLID_4_" class="st0" d="M8.2,32.6c-0.6,0.1-1.4,0-2.3-0.4c-1.2-0.5-2-1.6-2.1-3c-0.8-0.5-1.8-1.4-2.7-2.8
		c-0.4-0.5-0.2-1.3,0.3-1.6c0.5-0.4,1.3-0.2,1.6,0.3c0.5,0.7,0.9,1.1,1.3,1.5c0.4-0.9,1.1-1.8,2-2.1c1-0.3,1.9,0,2.6,0.9
		c0.7,0.8,0.9,2.5,0.5,3.4c-0.4,1-1.3,2.3-2.5,2.5c0,0,0,0,0,0c1-0.1,1.3-0.4,1.8-0.9c0.5-0.4,1.5-1.5,2.9-0.6
		c0.5,0.4,0.6,1,0.3,1.5c-0.4,0.5-1.1,0.6-1.6,0.2c-0.1,0-0.1,0.1-0.2,0.1C9.8,32,9.1,32.5,8.2,32.6z M6.4,27.7c0.1,0,0.2,0,0.2,0
		c0.3,0,0.5-0.2,0.6-0.4c0.1-0.1,0-0.3-0.1-0.4C7,26.8,6.6,27.2,6.4,27.7z"/>
</g>
</svg>
